<svg xmlns="http://www.w3.org/2000/svg" viewBox="0 0 647.93 554.91"><defs><style>.cls-1{fill:#1d1d1b;opacity:0.26;}.cls-2{fill:#fff;}</style></defs><title>MAPA</title><g id="Capa_1" data-name="Capa 1"><rect class="cls-1" width="647.93" height="554.91"/></g><g id="Capa_2" data-name="Capa 2"><path class="cls-2" d="M331.26,341.48h94.1V327.67l0-5.13v-83c0-1.32,0-2.21,0-2.63h0c-.52-3.64-2-6.39-4.16-7.6-2.7-1.51-6-.51-8.22.61-2,1-19.36,9.35-29.3,9.35-20.21,0-36.65-18.12-36.65-40.39s16.44-40.39,36.65-40.39c9.95,0,27.35,8.4,29.3,9.36,3.21,1.57,6.13,1.79,8.24.59s3.78-4.26,4.22-8.2c0-.16,0-.36,0-.66l0-2V122.5a2.34,2.34,0,0,0-1.27-.12c-4.51.82-6.87-2.14-9.54-4.9-1.23-1.27-1.81-2.91-3-4.09-.48-.46-1.65-.37-1.29-1.46.25-.74,1.08-1,1.69-1.38s1.7.82,1.69-.65c0-1.3-1.19-1.2-2-1.42a9.33,9.33,0,0,0-1.48,0c-1.7-.15-2.47-.94-1.61-2.63.32-.62.74-1.26.18-1.82-2.57-2.58-2.43-6-2.94-9.22-.13-.84-.34-1.86-1.38-1.76-1.62.16-2-.8-2.27-2-.2-.79-.66-2-1.56-1.4a5.75,5.75,0,0,1-5.65,1,1.21,1.21,0,0,0-1.05.53c-.9,2.12-2.74,1.52-4.29,1.47a16.75,16.75,0,0,0-9.43,2.5,13.49,13.49,0,0,1-8.43,2c.79,1.76,0,3.49.35,5.17.54,2.7-.7,4-3.09,4.76-1.48.44-2.93,1-2.66,3,.25,1.84,1.16,3.14,3.19,3.17a2.32,2.32,0,0,1,2.56,2.4c.16,1.39,1.33,2.83-.45,4-.4.27-.06.71.17,1.08,2.38,3.84,1.88,7.22-1.3,10.34-1.13,1.11-2.41,1.24-3.28.3s.6-1.56,1.16-2.24c.42-.51,1.59-.57,1-1.64-.45-.89-1.26-.55-2-.42-.56.11-1.13.19-2.11.35,2.07,1.3.83,2.46-.08,2.91-1.56.77-3.06,1.79-5,1.9s-4.1-1.38-5.32,1.32c-.09.2-.82,0-1.18.21-1.73.83-3.39-1.43-4.29-.81-2,1.38-4.53.64-6.35,2a7.67,7.67,0,0,1-3.62,1.54,2.56,2.56,0,0,0-2.29,1.95c-.6,1.92-1.95,2.67-4,2.73-1.61,0-3.39.1-4.4,1.78-1.63,2.73-3,3.31-5.8,1.86-1.37-.71-2.18-.82-3.11.47s-2.32,1.19-3.8.7c-3.06-1-4.09-4.8-7.46-5.34-.18,0-.36-.55-.39-.86-.13-1.3-1.29-1.86-1.89-2.82-.88-1.4-2.78-.65-3.64-1.69-1.13-1.37-2-.74-3.23-.25-1.83.72-2.27,2.91-4.08,3.5-2.62.85-3.53,2.59-3.32,5.31.11,1.43-.2,2.75-2.49,2.74-1.39,0-2.76-.77-4.2-.17a5.61,5.61,0,0,1-4.73.16,3.42,3.42,0,0,0-3.61.82c-1,1-.33,2.23.24,3.42.66,1.39,2.08,2.34,2.14,4.11,0,1,1,1,1.75.59a4.65,4.65,0,0,1,2.29-.88,2,2,0,0,1,1.93,1.33c.23.61.05,1.36-.53,1.49-3.1.66-1.25,1.68-.26,2.69,2.26,2.29,1.4,6.61-1.51,8.12-1,.5-2.36.74-2.53,2.14-.37,3.17-2.6,5.72-2.82,9a4.41,4.41,0,0,0,.23,2.77,6.68,6.68,0,0,1-1,7.87c-.83.9-2.91,1.31-1.55,3.37.26.4-.54,1-1.1,1.14-2.13.48-2.23,1.92-1.78,3.61.5,1.86-.27,2.72-2,3.24-1.38.4-3.52,0-3.69,2.21-.14,1.74-1.8,2.74-1.77,4.55a7.36,7.36,0,0,1-3.72,6.08,1.27,1.27,0,0,0-.53.79c-.21,1-1,1.15-1.77,1.47A50.78,50.78,0,0,0,254,219c-1.22.67-2.14,1.52-1.35,3.2a3,3,0,0,1-.73,3.43c-.83.89-1.53,1.92-2.27,2.86.61.71,2.33.09,1.93,1.53a2.7,2.7,0,0,1-3.36,1.94c-.45,1.45,2.39,2.26.45,3.75-1.21.93-.45,2.86-2.09,3.71-2.84,1.46-5.36,3.49-8.41,4.61-2.27.83-2.77,2.65-2.2,4.86a17.72,17.72,0,0,0,2.09,4.47c1.25,2.13,3.67,2.49,5.25,4s4.64,2.62,3.07,6c-.25.53.42,1.2.94,1.3,1.79.35.91,1.7.93,2.56s-.94,1-1.7.92c-.5,0-1.22-.09-1.26.48-.12,1.69-1.27,1.39-2.1,1a2.78,2.78,0,0,0-3.64,1.14,5,5,0,0,1-4.21,2.11,7.84,7.84,0,0,0-2.91.6c-2.35,1.07-5,1.9-5.24,5.2-.06,1-.74,1.29-1.61,1-1.52-.57-2.12.25-2.57,1.5-.16.44-.44,1.09-.79,1.18-2.22.58-3.59,2.14-5,3.81-.55.65-1.67,1.34-2.37-.2-1-2.27-2.87-2.8-5.13-2.19a21.43,21.43,0,0,0-6.43,2.57c-2.44,1.58-4.72,3.71-7.85,4.41-1.16.26-2.1.92-3.35.35-1.9-.86-5.43.19-6.78,1.91-1.51,1.93-3,3.93-6,2.44-.38-.19-1,.06-1.47.07-4.4.11-8.26,1.89-12.07,3.84a11.66,11.66,0,0,1-5.17,1.64c-3.77,0-5.6,1.33-5,5a8.05,8.05,0,0,1-1.11,5.28v13.2c0,1,0,10.91,0,17h94.73c1.1,0,1.89,0,2.26,0h.35v.13l.29,0-.13,3.57,0,1,.23-4.53c11.16,1.12,18.37,8,18.37,17.54a21.86,21.86,0,0,1-2.41,9.65c-3.21,6.56-8.31,19.08-8.31,24.79C260,408.16,273.48,420,290.1,420s30.14-11.83,30.14-26.39c0-5.71-5.1-18.23-8.32-24.79a21.91,21.91,0,0,1-2.41-9.66c0-9.7,7.71-16.78,19.38-17.63l-.31,0,.22,0Z" transform="translate(-105.51 -35.09)"/></g><g id="Capa_3" data-name="Capa 3"><path class="cls-2" d="M616.18,149.68a21.26,21.26,0,0,1-4.74-3.9c-1.19-1.36-3.06-2.66-5.31-1.45a1.48,1.48,0,0,1-2-.22c-.47-.66,0-1.3.44-1.78,1-1.13.83-1.88-.59-2.37a2,2,0,0,1-1.42-2.71,1.92,1.92,0,0,0-1.65-2.57c-.5-.1-1.05-.2-1.26-.7-.86-2.09-1.84-1.13-3-.26-1.73,1.27-3.57,2.39-5.37,3.57a2,2,0,0,1-2.9-.35c-1.3-1.68-2.8-1.77-4.63-1-1,.4-5.64-2.51-5.77-3.54a2.28,2.28,0,0,1,.94-2.19c.45-.34,1.05-.49,1.52-.82,1.87-1.31,1.89-2.21.12-3.61-2.41-1.9-5.74-1-8.23-2.72-.08-.06-.35,0-.45.15-2.09,2.2-6,2.38-6.78,6.07-.07.31-.54.65-.9.77a19.43,19.43,0,0,1-9.42.7,10.22,10.22,0,0,0-5.86.39c-2.68,1-7.58-1.23-8.27-4a2.51,2.51,0,0,0-1.69-1.91,4.75,4.75,0,0,1-2.66-3.12c-.57-1.59-.08-3.78-2.65-4.15-.44-.06-.24-.69,0-1a.9.9,0,0,0-.31-1.47c-1.49-.69-2.42-2.54-4.53-2-1.17.29-1.49-.84-1.77-1.7s.33-1.39,1.18-1.45c1.91-.13,2.29-1.06,1.94-2.85s-1.25-2.54-3.22-2.55c-2.77,0-5.23,1.22-7.92,1.55-2,.24-3-1.55-4.85-1.28-2.3.33-5.1-3.49-3.82-5.39,1.73-2.58,1.65-6.44,5.28-7.72.2-.07.33-.37.45-.58a5.71,5.71,0,0,1,3.83-2.91c.82-.18,2.28-.75,1.45-2s-.15-1.64.45-2.29a3,3,0,0,0,.87-2.21,3.46,3.46,0,0,1,4.93-3.27c1.26.5,2.24-.28,3.26-.72.53-.23.43-.91.07-1.3-1.17-1.22-.84-2.6-.49-4,.48-1.88-.26-3.62-.71-5.36-.32-1.23-1.5-.66-2.35-.74-.38,0-.42-.42-.53-.74-.4-1.24-.65-1.88-1.82-.3-.84,1.14-2.09,2.43-4,1.92-.3-.08-3.2,3.65-3.1,4a1,1,0,0,0,.41.56c.51.28,1.57.07,1.15,1.13a1.62,1.62,0,0,1-1.94.79c-1.7-.56-3.7-.71-4.69-2.58-1.47-2.78-3.22-3.18-6.14-1.86-1.48.67-2.67,2.12-4.48,1.94-2.79-.27-5.26.17-7,2.69-.95,1.38-2.44,1.33-3.84,1.06-2.51-.48-5-1-7.48-1.68-1.39-.4-1.94,0-2.38,1.24-.88,2.55-2.57,4-5.47,3.55a11.77,11.77,0,0,0-3-.07c-1,.11-2.14,1.07-1.5,1.73,1.46,1.48,1.83,3.88,3.83,4.76a22.52,22.52,0,0,1,6.47,4.09,1.48,1.48,0,0,0,2.38,0c1.11-1.18,2-.73,3.26,0,1.62.88,2.62,3.08,5,2.47.57-.14,2.65,4.65,2.17,5-2.33,1.65-1.76,3.63-.85,5.71-2.82,1.76-.44,3.81-.26,5.7.3,3.11-1.41,5.79-1.66,8.74-.19,2.25-1.49,3.42-3.28,4.27s-3.49,1.55-5.24,2.29a9.6,9.6,0,0,1-4.83.62c-2.27-.22-3.09-2.07-4.53-3.21-.9-.71-2.18-1.64-2.78-.67-1.22,2-4,3.29-3,6.35a2.5,2.5,0,0,1-1,3.06c-.51.36-1.1.52-1.58,0-.94-1,.12-1.84.37-2.73.71-2.55-.34-3.67-3-3.28-1.43.21-2.94-.13-4.19,1a1.21,1.21,0,0,1-1.6-.19c-1-2.38-2.47-1.63-4.09-.85-.39.19-1,0-1.47-.08a2.91,2.91,0,0,0-3.37,1.81c-.94,2-2.07,1.93-3.17-.08-.81-1.48-1.94-2.35-3.62-1.94-1.15.28-2.11.92-2.3-1-.07-.67-1.13-.74-1.71-.4-.94.55-.24,1.17.18,1.6.68.69,1,1.9,2.16,1.92,2.74,0,2,2.23,1.84,3.44-.17,1.67-1.44,1.67-2.73.74-.26-.19-.81,0-1.22,0a18,18,0,0,1-4.36.44v28.21c0,1.1,0,1.89,0,2.26v.35h-.13c0,.09,0,.18,0,.29l-3.52-.13-1,0,4.47.23c-1.1,11.16-7.89,18.37-17.29,18.37a21.31,21.31,0,0,1-9.51-2.41c-6.47-3.21-18.82-8.31-24.45-8.31-14.35,0-26,13.52-26,30.13s11.67,30.14,26,30.14c5.63,0,18-5.1,24.44-8.32a21.36,21.36,0,0,1,9.53-2.41c9.56,0,16.55,7.71,17.39,19.38l0-.31,0,.22,0,2.47v94.1h13.62l5.06,0h55.48c0-.07,0-.14,0-.21a15.64,15.64,0,0,0-5.22-11.81c-2.35-2.24-4.75-5.06-4.68-8.95,0-1.57.33-2.21,2-2.77,1.91-.64,4.43.06,5.69-1.8a9.51,9.51,0,0,1,4-3.21,8.74,8.74,0,0,0,3.26-3.27c2-2.82,2.41-5.83,2.31-9.18-.06-2-.3-4.57,2-5.7,1.72-.87,3.57-2.47,5.79-.29a3.17,3.17,0,0,0,4-.13c1.25-1.08,0-2.28-.39-3.39-1-2.72-2.07-5.42-3-8.16-.45-1.29-.61-2.7.51-3.73s2.19-2.52,3.72-3.27c3.76-1.85,5.32-5,5.44-9,0-1.25.7-2.46,1.8-2.24,1.92.38,2.17-.71,2.5-2a1.24,1.24,0,0,1,.76-.86c3.58-1.85,4-5.57,5-8.87.26-.85-.31-1.59-1.52-.81a12.93,12.93,0,0,0-4.15,3.48,15.21,15.21,0,0,1-7.7,6.4,43.57,43.57,0,0,0-11,5.13c-2.21,1.53-5.18,2.42-5.52,5.8-.07.66-.46,1.42-1.28,1.24-2.07-.47-2.72-2.24-3.36-4-.51-1.38-.48-2.46,1-3.39,1.76-1.11,3.54-2.53,3.42-4.85-.15-2.88,1.82-3.88,3.81-4.83,1.28-.61,2.66-.75.83-2.4-.51-.46-1.1-1.45.07-2.08.91-.49,1.62-.32,1.91.76.38,1.38,1.22,1.14,2.44,1.16,4.05.07,7.29-2.41,11.06-3.12,1.31-.24,1.9-.9.82-2.25a13,13,0,0,1-2-3.14,5.29,5.29,0,0,1,1-5.4c1.83-2.31,2.9-4.54,1.91-7.45a1.85,1.85,0,0,1,.52-2.05c2-1.91,2.81-5,5.37-6.33,2.78-1.47,5.73-2.62,8.65-3.82.33-.13.89.37,1.36.5,2.36.68,4.75,1.77,6.7-.94a2.13,2.13,0,0,1,2.75-.42,3.82,3.82,0,0,0,2.17.27c.63-.09,1.45-1,1.94,0,.36.76-.41,1.32-.86,1.92-1.05,1.39-1.13,5-.06,5.14A11.05,11.05,0,0,1,570.6,224c0,.06.15.06.23.09.75.26,1.37.62,1.37,1.54s-.63,1.31-1.33,1.62c-1.22.53-2.43,1.08-3.69,1.5-1.52.51-1.46,1.29-.63,2.39,2.18,2.9,4.84,2.77,6.56-.65,1.05-2.1,2.67-1.1,3.76-.89s.08,1.53-.17,2.35c0,.16-.16.29-.22.45-.22.6-.77,1.24-.13,1.82s1.22,0,1.69-.44c1-.95,2.16-.76,3.46-.72,2.3.07,4.8.41,6.74-1.43a1.67,1.67,0,0,1,1.79-.56c.35.12.94.45.93-.24,0-2.38,1.12-1,2.2-.92,2.33.26,1.46-2.48,2.77-3.38a1.49,1.49,0,0,0,.13-2.22,1.62,1.62,0,0,0-.92-.26c-5.6-.54-5.6-.54-7-6-.16-.61-.64-1.17-.2-1.88,1-1.58.41-3-.6-4.31-.42-.54-1-1-.43-1.71,1.41-1.66,1.56-3.82,2.3-5.74.64-1.68,1.67-2.84,3.4-2.75,3.25.18,4.19-1.89,4.86-4.42-3.65.33-4.15-.56-3.52-4.2.41-2.36,2.82-3.79,2.5-6.34-.2-1.58.46-1.55,1.51-.76.59.44,1.53,1.15,1.88.23.55-1.41,2-2.71.75-4.59a3.68,3.68,0,0,1,1.76-5.45c1.41-.6,2-1.42,1.53-2.89-.5-1.74.25-2.87,1.76-3.65.74-.39,1.49-.79,1.44-1.83,0-.73-.26-1.61.7-1.9s1.41.44,1.75,1.09c1.06,2,3.16,1.12,4.72,1.57,1,.3.07-1.52.67-2.19a8.75,8.75,0,0,1,.6-.78c2.38-2.1,2.47-4.75,1.73-7.53a2.91,2.91,0,0,1,.24-2.56C619.18,152.71,618.87,151.39,616.18,149.68Z" transform="translate(-105.51 -35.09)"/><path class="cls-2" d="M645.37,328.51c1.81.64,2.58,0,3.61-1A5.06,5.06,0,0,1,651.8,326c2.59-.38,3.67-1.89,4.06-4.51.32-2.17.73-4.68,3.59-5.45a2.81,2.81,0,0,0,1.94-3.72,4,4,0,0,1,.46-4.13c.56-.85.35-1.17-.37-1.77-1.54-1.29-3.3-1.38-5.15-1.42-.7,0-2.29-.08-1.48-1.1,1-1.29,0-1.55-.44-2.15-.59-.78-1.33-1.35-.91-2.6.87-2.64.75-5.17-1.57-7.17-.82-.7-1.48-1.71-.74-2.6,2-2.39,2.61-5.75,6.07-7.69-1.17,0-1.75.07-2.24-.29a7.92,7.92,0,0,0-1.52-.84c-.9-.39-1-.81-.5-1.71.84-1.56-.39-3.57-2.06-3.16-2.21.55-3.36-.76-4.76-1.67,0-1.11,3.21-1.65.63-2.68-2.41-1-3.4-2.59-4.34-4.7a14.87,14.87,0,0,0-2.43-3.1c-.28-.33-.68-.55-1.08-.23a.77.77,0,0,0-.07,1.13c1.86,2.16.69,3.93-.6,5.77a6.68,6.68,0,0,0-1.26,3.46c-.11,1.77-1.22,3.9-2.54,3.83-2.49-.12-2.54,4-5.29,2.54a2.22,2.22,0,0,0-.22.67c0,2.84-3.72,3.69-3.49,6.63,0,.11-.26.35-.31.33-2-.84-2.12,1.21-2.86,2-1.63,1.85-3.87,3.46-4.85,5.48a25.76,25.76,0,0,1-3.89,6.27A13.15,13.15,0,0,1,612,303a136.8,136.8,0,0,1-7.29,18.55c-1.55,3.21-1.76,6.13-.58,8.24s4.2,3.78,8.08,4.22l.65,0,2,0h23.58a8.58,8.58,0,0,1,2.21-3.22C642,329.47,643.68,327.92,645.37,328.51Z" transform="translate(-105.51 -35.09)"/></g><g id="Capa_4" data-name="Capa 4"><path class="cls-2" d="M511.77,483.38c0-16.62-11.83-30.14-26.39-30.14-5.71,0-18.23,5.1-24.79,8.32a21.91,21.91,0,0,1-9.66,2.41c-9.7,0-16.78-7.71-17.63-19.38l0,.31,0-.22,0-2.47v-94.1H419.45l-5.13,0h-83c-1.32,0-2.21,0-2.63,0v0c-3.64.52-6.39,2-7.6,4.16-1.51,2.7-.51,6,.61,8.22,1,2,9.35,19.36,9.35,29.3,0,20.21-18.12,36.65-40.39,36.65S250.31,410,250.31,389.76c0-9.95,8.4-27.35,9.36-29.3,1.57-3.21,1.79-6.13.59-8.24s-4.26-3.78-8.2-4.22l-.66,0-2,0H155.3V361.2a10.55,10.55,0,0,0,.93.71c1.93,1.31,2,2.34.19,3.7-1.38,1-1.32,1.94.11,3.12,3.9,3.22,7.66,6.61,11.47,9.94.62.54,1.61,1.2,1.18,2-1.24,2.32.6,3,1.84,4.13,2,1.84,3.9,3.86,6,5.65,3.61,3.14,7.15,6.39,11.53,8.51,1.47.71,2.89,1,4.19-.08a5.48,5.48,0,0,1,6.32-.24c2.28,1.27,2.76.46,3.4-1.35a1.91,1.91,0,0,1,2.55-1.37c1.21.44,1.3,1.64,1.12,2.74-.1.64-.61,1.23-.65,1.86-.12,1.7-.6,3.9,1.38,4.56a20,20,0,0,0,4.51,1.22,2.59,2.59,0,0,0,2.26-.59c2-1.78,4-3.44,6.06-5.16,2.58-2.2,4-2.36,6.92-.66,1,.57,1.82,1,2.89,0,2-1.78,4.44-1.7,6.57,0a4,4,0,0,0,5.76-.89c.86-1.52,2.12-1.48,3.43-1.24,2.16.39,2.37,2.44,2.85,4,.4,1.29-1.14,1.43-2,1.76-1.89.73-1.76,1.35-.41,2.74a19.82,19.82,0,0,1,4.2,5.79c1.54,3.63,5.47,6.1,5.15,10.62,0,.23.39.52.64.73a23,23,0,0,1,6.23,7.69,75.22,75.22,0,0,1,4.68,13c.18.63.51,1.5-.1,1.87-1.88,1.14-1.26,4-3.46,4.88a1.24,1.24,0,0,0-.36,1.12c.88,2.93-.76,3.41-3.1,3.36a6.23,6.23,0,0,0-2,.31c-1.19.37-2.29.86-1.36,2.45a2.72,2.72,0,0,1,.07,2.41c-1.08,2.92-.84,6.07-1.7,9a1.27,1.27,0,0,0,.16,1.17c2.69,3.9,6.46,4.8,10.53,2.52.46-.26.91-1,1.47-.51s.17,1.26-.1,1.86a3.11,3.11,0,0,1-.67,1c-1.32,1.2-.94,2.07.42,2.88a6.14,6.14,0,0,1,2.85,4.41c.72,3.4,1.94,4.33,5.39,4.13,2.17-.13,3.89.22,5.27,2,.63.82,1.5,1.17,2.2,0,.36-.59.56-1.75,1.41-1.13a1.72,1.72,0,0,1,0,2.49c-1.81,1.89-1.49,4.51-2.4,6.7a2.73,2.73,0,0,0,.77,3c1.11,1.08.94,1.81-.49,2.34a1.85,1.85,0,0,0-1.44,1.82c.07,1.36,1.43.3,1.93.92,0,.9-1.63,1.44-.63,2.38s2,0,2.65-.56c1.54-1.55,3.3-1.42,5.09-1,2.91.7,2.9.77,3.12-2.27.19-2.55,1.67-3.49,3.92-2.26,1.61.88,3.06.28,4.58,0,1.24-.21,1.9-.69.87-2-.48-.59-1-1.37-.51-2,1.81-2.59,2.92-5.72,6.2-7.2,1.42-.64,3.68-.78,4-2.77.43-2.75,2.06-3.28,4.39-3.21,1,0,2.36.3,2.79-1,.81-2.48,2.65-3.27,5-3.69a4,4,0,0,0,3.13-5.33,4,4,0,0,1,1.42-4.6c1.34-1,1.19-2,1.19-3.23,0-1.76-1-.58-1.64-.62-.22,0-.5-.43-.59-.71-.5-1.49-1-3-1.41-4.51a1.58,1.58,0,0,1,.66-2c2.78-1.31,3.38-4.51,5.69-6.32,1.89-1.48,2.45-4.56,5.56-4.66a.67.67,0,0,0,.41-.27c2-2.55,5.09-4.36,5.59-8a1.24,1.24,0,0,1,1.08-1.2,76.59,76.59,0,0,1,8.68-1.11,50,50,0,0,0,7.82-.49c2.36-.41,3.5.37,4.24,2.26a2.29,2.29,0,0,0,2.15,1.71c2,.16,2.45,1.35,2.13,3.14-.29,1.63-.49,3.28-.65,4.93-.07.65,0,1.47.66,1.76.88.37,1-.55,1.37-1.07s.59-1,1.2-1.2c1.6-.42,2-1.38,1.76-3-.27-2,1.08-3.2,3.41-3.28s1.61,1.84,1.71,2.9a7.66,7.66,0,0,1-.63,3.87c-1.87,4.16,0,6.87,4.63,6.82,1,0,2.19.42,2.76-.59s-.06-2.17-.68-3c-1.42-1.89-2.75-3.34-1.75-6.29.64-1.89.72-4.13,1.68-6.07a3.41,3.41,0,0,0,.51-2.61c-1.11-3.65,0-6.62,3.11-9,.93-.69,1.42-.31,2.1.33,1.8,1.71,3.6,3.46,5.55,5,1.15.9,2.38,1.47,2,3.3-.21.92.69,1,1.35,1,2.59-.24,3,1.1,2.48,3.23-.13.55-.38,1.32-.13,1.68,1.71,2.44.72,5.13.93,7.72.16,2-.82,2.64-2.52,2.25-2.51-.57-4.21.52-5.49,2.46s-2.42,3.67-5.32,2.88c-1.4-.38-1.4,1.33-1.63,2.32a.75.75,0,0,0,1.05.92c1.6-.6,2.43.39,3.64,1.16,1.67,1.06,3.22,2.66,4.89,3.21,3.13,1.05,2.62,3.31,2.47,5.29s-1.74,4.18.32,6.24a2.55,2.55,0,0,1-2.32-.64,3.2,3.2,0,0,0-3.5-.17c-4,1.89-8,3.72-12,5.54-1.17.53-1.54,1-.59,2.2,1.32,1.6,2.48,3.32,3.67,5,.71,1,2.06,1.93.45,3.35-.55.49.12.93.55,1.08,4.16,1.49,7.33,4.75,11.43,6.36,2.81,1.11,3.88.77,5.13-1.92,1.08-2.34,2.16-4.67,3.2-7,.48-1.07,1-1.87,2.42-1.57a3.57,3.57,0,0,0,4.08-1.6,4.47,4.47,0,0,0-.44-5c-1.31-1.42-1.06-2.54-.13-4a9.87,9.87,0,0,1,2.7-3.21c2-1.26,3.94-3.4,6.7-1.66,1.59,1,2.9.92,4.08-.63.48-.62,1.18-1.09,1.9-.35,1.13,1.17,2.77,2,2.9,3.88.1,1.41,1,2,2.06,2.53q4.34,2.12,8.66,4.27c.85.42,1.53,1.59,2.62.91s.64-1.78.59-2.76c-.1-2,2.56-4.14,4.4-3.33,2.22,1,4.36,1.91,6.91,1.34a3.85,3.85,0,0,1,2.34.71c3.9,2.21,7.35,5.57,12.41,4.82a1,1,0,0,1,.68.28c1.57,1.27,2.74,1.12,3.68-.8.37-.76,1.25-1.4,2.05-.77s.6,1.68-.09,2.43-1.68,1.61-2.5,2.42c-3.53,3.5-3.53,3.5.3,6.65.57.47,1.11,1.1,2,.69s.44-1.14.46-1.77c.05-1.29-.29-2.79,1.52-3.25,1.58-.4,2.61.38,3.65,1.51a76.51,76.51,0,0,0,7.48,7.43,2.47,2.47,0,0,1,1.14,2.81c-.19,1-.92,2.45-.17,2.82,1.94,1,2.72,3.43,5.09,3.7.78.09,1.47.33,1.68.91C505.93,505.19,511.77,495.05,511.77,483.38Z" transform="translate(-105.51 -35.09)"/></g><g id="Capa_5" data-name="Capa 5"><path class="cls-2" d="M634.37,351.71a4.49,4.49,0,0,0,1.59-1.53c1.44-2.2,1.84-4.94,3.73-6.91l0,0H620.79c-1.1,0-1.89,0-2.26,0h-.35v-.13l-.29,0,.13-3.57,0-1-.23,4.53c-11.16-1.12-18.37-8-18.37-17.54a21.86,21.86,0,0,1,2.41-9.65c1.53-3.14,3.5-7.64,5.13-12.1a6.73,6.73,0,0,0-3.29,3.24,4.14,4.14,0,0,1-3.41,2.89c-4.5.49-6.64,4.14-9.16,7a13.74,13.74,0,0,1-3.47,3.29c-4.17,2.41-8.33,4.95-8,10.75a1.88,1.88,0,0,1-1.7,2.09,18,18,0,0,0-6.81,3.5c-2.81,2.15-6.1,1.08-9.2,1.24-.72,0-1.4-1.33-2.16-.46-.6.69.18,1.55.42,2.32a10.35,10.35,0,0,1,.39,1.18c.24,1.32-.3,1.7-1.54,1.24-2.59-1-5.19-2.06-7.6.44-.16.16-.65.11-.94,0-1.77-.6-2-.12-1.12,1.42.77,1.31.66,1.78-1.18,1.71-3.44-.13-5.62,2.06-6.2,5.56-.24,1.47-.57,2.93-.9,4.39-.15.67-.48,1.41-1.34,1.06-4-1.64-8.29-.93-12.43-1.44-.73-.09-1.56.2-2.21,0-3.3-1.23-5.71-3.76-8.17-6.1-1.2-1.14.45-2.62.39-4,0-.41-.08-.82-.12-1.24,0-.23-.05-.45-.08-.68H444.7V357l0,5.13v83c0,1.32,0,2.21,0,2.63h0c.52,3.64,2,6.39,4.16,7.6,2.7,1.51,6,.51,8.22-.61,2-1,19.36-9.35,29.3-9.35,20.21,0,36.65,18.12,36.65,40.39,0,19.64-12.78,36-29.65,39.64-1.06,1.5-.32,3,.61,4.37,1.41,2.12,1.28,5.81-.73,7.28-2.32,1.69-.8,2.07.46,3,.8.61,2.52.43,2.36,1.81s-1.77.78-2.7,1.11a3,3,0,0,0-.93.33c-3,2.54-5.44.37-8-.87-.33-.16-.5-.74-1-.51a1.24,1.24,0,0,0-.61,1.28c.09,1.07.75,2.34.37,3.14-1.55,3.23.11,5.93.95,8.82.4,1.36,1.1,1.72,2.38,1.4s2.6-.72,3.37.1c2.82,3,6.07,1.06,9.12,1a4,4,0,0,0,2.92-1.74c1.77-2.18,3.89-4.06,5.1-6.7.92-2,3-1.62,4.63-1.64s1,1.36.94,2.29a1,1,0,0,0,.29.64,4.1,4.1,0,0,0,5.78-.22c.47-.51.93-1.58,1.72-.76,1,1,2.33,2.17,2.14,3.76-.27,2.27,1.16,3.25,2.76,3.8,2.46.84,6.13-.13,6.51-1.72.71-3,2.64-2.21,4.43-1.71,1.3.36,2.62.87,3.89.37,2-.77,3.89-.44,5.86-.08a7.38,7.38,0,0,0,3.44.19c3.75-1.27,7.2-.06,10.69.91a2.92,2.92,0,0,0,3.62-1.19c4-5.33,8.08-10.54,12.09-15.84,1.14-1.51,2.37-3,2.72-5,.18-1,.52-1.83-1.11-2.12-1.44-.25-1.34-1.91-1.49-3s-.51-2.78.78-3.11c2.23-.57,4.39-2.21,6.92-.95,1.82.91,4-.33,5.8,1,1.93-2.2,3.29-.48,4.71.69a1.64,1.64,0,0,0,1.32.55c2.87-.41,5.6-.88,7.94-3,1.66-1.52,3.27-3.61,6.08-3.3,1.29.14,3.11.48,3.4-1.15.37-2.09,1.11-4.77-.49-6.34-2-2-4.69-3.67-8-2.36a1.13,1.13,0,0,1-1.36-.36c-1.61-2.24-3.94-3.92-4.76-6.8-.46-1.61-.06-3.87-1.84-4.69-2-.95-2.27-2.44-2.19-4.25.09-2.16-1.1-3.19-3-3.59a14.16,14.16,0,0,0-5.43.07c-2.09.38-5.11-2-4.33-3.33s1.6-2.95,3.33-3.55c1-.34,1.94-.83,2.1-1.93.36-2.46,2.28-3.26,4.18-3.85,2.2-.69,2.93-2.09,2.53-4.15-.33-1.72.5-2.25,2-2.42a13,13,0,0,0,2.45-.43c.81-.26,1.42-1.3.69-1.66-2.52-1.24-.41-2.11.11-3,.37-.65,1.49-1,.67-2-.36-.45-1.59-.29-1.1-1.27.38-.76,1.32-.53,2-.56.91,0,1.83,0,2.74,0,1.08,0,1.85.16,2-1.59.23-2.93,2-3.68,4.79-2.74a13.74,13.74,0,0,0,5.87.86,7.41,7.41,0,0,0,5.94-3.6c1.11-2-.41-3.61-1.59-5.12a2.1,2.1,0,0,1-.47-2c.42-1.66.38-3.44,1.77-4.75a.89.89,0,0,0-.1-1.5c-1.89-.86-2.12-2.87-3.18-4.29-.9-1.21-.83-2.52.43-3.25,3.57-2.08,3.78-6.1,4.73-9.26.67-2.22,1.76-2.53,3.16-3.53,2.24-1.61,5.8-1.87,6.14-5.66.1-1.14,1-1.44,2.26-1,2.05.65,3.21-.57,3.55-2.43a18.45,18.45,0,0,1,1-3.56c-3.5.59-6.37-1.61-9.69-1.36-1.13.09-1-1.18,0-1.92.72-.54,2.32-7.57,2-8.33a1.39,1.39,0,0,0-.44-.59c-1.73-1.13-2.52-3.17-4.44-4.25-2.16-1.21-2.24-2.72-.76-4.84a1.75,1.75,0,0,0-.3-2.44,54,54,0,0,0-7.58-6.74c-1.19-.94-2.79-1.87-4.32-.57-1.38,1.17-3,2.35-3.74,3.9s-1.59,1.7-3.06,1.53c-2.08-.24-3.9.05-4.69,2.59-.5,1.62-5.78,3.57-7.4,3-.3-.1-.7-.28-.81-.52-.61-1.4-1.48-1.49-2.76-.84-1.65.83-2.14-.13-2.39-1.64-.33-2,1.2-3.2,1.62-4.86.22-.89.81-1.82,0-2.55-2.36-2.13-.94-3.09,1-4.14a9.69,9.69,0,0,0,4.74-6.54c.38-1.59.72-2.29,2.28-2.55,1.9-.31,3.76-1,4.95,1.38.19.38,1,.44,1.55.65,1.8.74,3.84-.45,5.3.1,2.19.82,4,.38,6-.09,1-.24,1.34-.58,1.3-1.65-.11-2.65-.09-5.31-.07-8,0-.8.24-2.18,1.25-1.48,2.06,1.42,4.11,1.08,6.3.92a22.06,22.06,0,0,0,6.16-1.29c.63-.23,1.41-.66,1.19-1.39C632.13,352.53,633.38,352.26,634.37,351.71Z" transform="translate(-105.51 -35.09)"/></g></svg>